<svg xmlns="http://www.w3.org/2000/svg" width="223" height="222.09" viewBox="0 0 247.75 246.75"><defs><style>.cls-1{opacity:.2}.cls-2{fill:#534741}.cls-3{fill:#3e2723}</style></defs><title>olives</title><g id="Layer_2" data-name="Layer 2"><g id="Toppings"><g id="Olives"><g id="Olives-2" class="cls-1" data-name="Olives"><path d="M85.38,3a15.38,15.38,0,1,0,15.37,15.38A15.37,15.37,0,0,0,85.38,3Zm0,22.28a6.91,6.91,0,1,1,6.9-6.9A6.9,6.9,0,0,1,85.38,25.28Z" class="cls-2"/><path d="M17.38,81A15.38,15.38,0,1,0,32.75,96.38,15.37,15.37,0,0,0,17.38,81Zm0,22.28a6.91,6.91,0,1,1,6.9-6.9A6.9,6.9,0,0,1,17.38,103.28Z" class="cls-2"/><path d="M100.38,216a15.38,15.38,0,1,0,15.37,15.38A15.37,15.37,0,0,0,100.38,216Zm0,22.28a6.91,6.91,0,1,1,6.9-6.9A6.9,6.9,0,0,1,100.38,238.28Z" class="cls-2"/><path d="M232.38,143a15.38,15.38,0,1,0,15.37,15.38A15.37,15.37,0,0,0,232.38,143Zm0,22.28a6.91,6.91,0,1,1,6.9-6.9A6.9,6.9,0,0,1,232.38,165.28Z" class="cls-2"/><path d="M186.38,25a15.38,15.38,0,1,0,15.37,15.38A15.37,15.37,0,0,0,186.38,25Zm0,22.28a6.91,6.91,0,1,1,6.9-6.9A6.9,6.9,0,0,1,186.38,47.28Z" class="cls-2"/><path d="M157.38,150a15.38,15.38,0,1,0,15.37,15.38A15.37,15.37,0,0,0,157.38,150Zm0,22.28a6.91,6.91,0,1,1,6.9-6.9A6.9,6.9,0,0,1,157.38,172.28Z" class="cls-2"/><path d="M121.38,74a15.38,15.38,0,1,0,15.37,15.38A15.37,15.37,0,0,0,121.38,74Zm0,22.28a6.91,6.91,0,1,1,6.9-6.9A6.9,6.9,0,0,1,121.38,96.28Z" class="cls-2"/><path d="M63.38,135a15.38,15.38,0,1,0,15.37,15.38A15.37,15.37,0,0,0,63.38,135Zm0,22.28a6.91,6.91,0,1,1,6.9-6.9A6.9,6.9,0,0,1,63.38,157.28Z" class="cls-2"/></g><g id="Olives-3" data-name="Olives"><path d="M83.38,0A15.38,15.38,0,1,0,98.75,15.38,15.37,15.37,0,0,0,83.38,0Zm0,22.28a6.91,6.91,0,1,1,6.9-6.9A6.9,6.9,0,0,1,83.38,22.28Z" class="cls-3"/><path d="M15.38,78A15.38,15.38,0,1,0,30.75,93.38,15.37,15.37,0,0,0,15.38,78Zm0,22.28a6.91,6.91,0,1,1,6.9-6.9A6.9,6.9,0,0,1,15.38,100.28Z" class="cls-3"/><path d="M98.38,213a15.38,15.38,0,1,0,15.37,15.38A15.37,15.37,0,0,0,98.38,213Zm0,22.28a6.91,6.91,0,1,1,6.9-6.9A6.9,6.9,0,0,1,98.38,235.28Z" class="cls-3"/><path d="M230.38,140a15.38,15.38,0,1,0,15.37,15.38A15.37,15.37,0,0,0,230.38,140Zm0,22.28a6.91,6.91,0,1,1,6.9-6.9A6.9,6.9,0,0,1,230.38,162.28Z" class="cls-3"/><path d="M184.38,22a15.38,15.38,0,1,0,15.37,15.38A15.37,15.37,0,0,0,184.38,22Zm0,22.28a6.91,6.91,0,1,1,6.9-6.9A6.9,6.9,0,0,1,184.38,44.28Z" class="cls-3"/><path d="M155.38,147a15.38,15.38,0,1,0,15.37,15.38A15.37,15.37,0,0,0,155.38,147Zm0,22.28a6.91,6.91,0,1,1,6.9-6.9A6.9,6.9,0,0,1,155.38,169.28Z" class="cls-3"/><path d="M119.38,71a15.38,15.38,0,1,0,15.37,15.38A15.37,15.37,0,0,0,119.38,71Zm0,22.28a6.91,6.91,0,1,1,6.9-6.9A6.9,6.9,0,0,1,119.38,93.28Z" class="cls-3"/><path d="M61.38,132a15.38,15.38,0,1,0,15.37,15.38A15.37,15.37,0,0,0,61.38,132Zm0,22.28a6.91,6.91,0,1,1,6.9-6.9A6.9,6.9,0,0,1,61.38,154.28Z" class="cls-3"/></g></g></g></g></svg>