<svg xmlns="http://www.w3.org/2000/svg" width="223" height="239.27" viewBox="0 0 226.41 242.93"><defs><style>.cls-1,.cls-3{opacity:.1}.cls-2,.cls-3{fill:#534741}.cls-4{fill:#f7ea8d}</style></defs><title>cheese</title><g id="Layer_2" data-name="Layer 2"><g id="Ingredients"><g id="Cheese"><g class="cls-1"><rect width="9.37" height="39.26" x="95.62" y="-2.95" class="cls-2" transform="translate(160.69 -65.13) rotate(116.99)"/><rect width="9.37" height="39.26" x="67.69" y="35.87" class="cls-2" transform="translate(143.92 -1.06) rotate(104.19)"/><polyline points="42.32 73.4 34.04 77.79 52.45 112.47" class="cls-3"/><rect width="9.37" height="39.26" x="41.82" y="68.29" class="cls-2" transform="matrix(-0.88, 0.47, -0.47, -0.88, 128.81, 143.78)"/><rect width="9.37" height="39.26" x="81.94" y="98.47" class="cls-2" transform="translate(215.28 48.1) rotate(97.71)"/><rect width="9.37" height="39.26" x="104.55" y="68.99" class="cls-2" transform="translate(189.58 -26.83) rotate(85.78)"/><rect width="9.37" height="39.26" x="130.45" y="41.93" class="cls-2" transform="translate(282.86 46.38) rotate(149.64)"/><rect width="9.37" height="39.26" x="164.33" y="37.26" class="cls-2" transform="translate(333.71 125.27) rotate(-176.06)"/><rect width="9.37" height="39.26" x="80.69" y="130.88" class="cls-2" transform="translate(251.94 197.4) rotate(135.28)"/><rect width="9.37" height="39.26" x="134.67" y="113.82" class="cls-2" transform="translate(310.5 222.58) rotate(163.75)"/><rect width="9.37" height="39.26" x="165.98" y="91.09" class="cls-2" transform="translate(315.5 -32.14) rotate(102.42)"/><polyline points="225.71 162.76 226.41 153.41 187.25 150.48 186.55 159.82" class="cls-2"/><rect width="9.37" height="39.26" x="104.89" y="205.13" class="cls-2" transform="translate(336.65 329.48) rotate(140.75)"/><rect width="9.37" height="39.26" x="11.64" y="113.33" class="cls-2" transform="translate(-26.56 259.87) rotate(-154.33)"/><rect width="9.37" height="39.26" x="48.49" y="151.43" class="cls-2" transform="matrix(-0.96, -0.28, 0.28, -0.96, 56.7, 350.17)"/></g><rect width="9.37" height="39.26" x="92.03" y="-6.55" class="cls-4" transform="matrix(-0.45, 0.89, -0.89, -0.45, 152.26, -67.16)"/><rect width="9.37" height="39.26" x="64.09" y="32.27" class="cls-4" transform="translate(135.95 -2.06) rotate(104.19)"/><polyline points="38.72 69.8 30.45 74.19 48.85 108.88" class="cls-3"/><rect width="9.37" height="39.26" x="38.22" y="64.69" class="cls-4" transform="translate(120.34 138.69) rotate(152.04)"/><rect width="9.37" height="39.26" x="78.34" y="94.88" class="cls-4" transform="translate(207.63 47.58) rotate(97.71)"/><rect width="9.37" height="39.26" x="100.95" y="65.39" class="cls-4" transform="translate(182.66 -26.57) rotate(85.78)"/><rect width="9.37" height="39.26" x="126.86" y="38.33" class="cls-4" transform="translate(274.34 41.5) rotate(149.64)"/><rect width="9.37" height="39.26" x="160.73" y="33.66" class="cls-4" transform="translate(326.77 117.83) rotate(-176.06)"/><rect width="9.37" height="39.26" x="77.09" y="127.28" class="cls-4" transform="translate(243.26 193.77) rotate(135.28)"/><rect width="9.37" height="39.26" x="131.08" y="110.23" class="cls-4" transform="translate(302.44 216.53) rotate(163.75)"/><rect width="9.37" height="39.26" x="162.38" y="87.5" class="cls-4" transform="translate(307.61 -32.99) rotate(102.42)"/><polyline points="222.11 159.16 222.81 149.81 183.65 146.88 182.95 156.23" class="cls-4"/><rect width="9.37" height="39.26" x="101.3" y="201.53" class="cls-4" transform="translate(327.99 325.37) rotate(140.75)"/><rect width="9.37" height="39.26" x="8.04" y="109.73" class="cls-4" transform="translate(-31.84 251.47) rotate(-154.33)"/><rect width="9.37" height="39.26" x="44.89" y="147.84" class="cls-4" transform="translate(50.65 342.12) rotate(-163.86)"/></g></g></g></svg>