<svg xmlns="http://www.w3.org/2000/svg" width="223" height="225.11" viewBox="0 0 252.97 255.37"><defs><style>.cls-1{opacity:.1}.cls-2{fill:#534741}.cls-3{fill:#7cc661}.cls-4{fill:#cae09b}.cls-5{fill:#deefb6}</style></defs><title>cucumber</title><g id="Layer_2" data-name="Layer 2"><g id="Ingredients"><g id="Cucumber"><g class="cls-1"><circle cx="163.21" cy="37.3" r="32.21" class="cls-2"/><circle cx="163.21" cy="37.3" r="28" class="cls-2"/><circle cx="163.21" cy="37.3" r="17.04" class="cls-2"/></g><circle cx="158.12" cy="32.21" r="32.21" class="cls-3"/><circle cx="158.12" cy="32.21" r="28" class="cls-4"/><circle cx="158.12" cy="32.21" r="17.04" class="cls-5"/><g class="cls-1"><circle cx="115.24" cy="122.44" r="32.21" class="cls-2"/><circle cx="115.24" cy="122.44" r="28" class="cls-2"/><circle cx="115.24" cy="122.44" r="17.04" class="cls-2"/></g><circle cx="110.15" cy="117.35" r="32.21" class="cls-3"/><circle cx="110.15" cy="117.35" r="28" class="cls-4"/><circle cx="110.15" cy="117.35" r="17.04" class="cls-5"/><g class="cls-1"><circle cx="172.8" cy="197.98" r="32.21" class="cls-2"/><circle cx="172.8" cy="197.98" r="28" class="cls-2"/><circle cx="172.8" cy="197.98" r="17.04" class="cls-2"/></g><circle cx="167.71" cy="192.89" r="32.21" class="cls-3"/><circle cx="167.71" cy="192.89" r="28" class="cls-4"/><circle cx="167.71" cy="192.89" r="17.04" class="cls-5"/><g class="cls-1"><circle cx="220.77" cy="120.04" r="32.21" class="cls-2"/><circle cx="220.77" cy="120.04" r="28" class="cls-2"/><circle cx="220.77" cy="120.04" r="17.04" class="cls-2"/></g><circle cx="215.68" cy="114.95" r="32.21" class="cls-3"/><circle cx="215.68" cy="114.95" r="28" class="cls-4"/><circle cx="215.68" cy="114.95" r="17.04" class="cls-5"/><g class="cls-1"><circle cx="37.3" cy="87.66" r="32.21" class="cls-2"/><circle cx="37.3" cy="87.66" r="28" class="cls-2"/><circle cx="37.3" cy="87.66" r="17.04" class="cls-2"/></g><circle cx="32.21" cy="82.57" r="32.21" class="cls-3"/><circle cx="32.21" cy="82.57" r="28" class="cls-4"/><circle cx="32.21" cy="82.57" r="17.04" class="cls-5"/><g class="cls-1"><circle cx="70.87" cy="223.17" r="32.21" class="cls-2"/><circle cx="70.87" cy="223.17" r="28" class="cls-2"/><circle cx="70.87" cy="223.17" r="17.04" class="cls-2"/></g><circle cx="65.78" cy="218.08" r="32.21" class="cls-3"/><circle cx="65.78" cy="218.08" r="28" class="cls-4"/><circle cx="65.78" cy="218.08" r="17.04" class="cls-5"/></g></g></g></svg>