<svg xmlns="http://www.w3.org/2000/svg" width="240" height="229.61" viewBox="0 0 276.75 264.78"><defs><style>.cls-1{opacity:.2}.cls-2{fill:#534741}.cls-3{fill:#be3333}.cls-4{fill:#e1a0a0}</style></defs><title>salami</title><g id="Layer_2" data-name="Layer 2"><g id="Toppings"><g id="Salami"><g id="Salami-2" class="cls-1" data-name="Salami"><circle cx="114.24" cy="41.31" r="38.31" class="cls-2"/><circle cx="106.98" cy="24.8" r="5.95" class="cls-2"/><circle cx="130.76" cy="57.83" r="5.95" class="cls-2"/><circle cx="106.98" cy="59.15" r="5.95" class="cls-2"/><circle cx="89.8" cy="41.98" r="4.62" class="cls-2"/><circle cx="130.1" cy="33.39" r="5.28" class="cls-2"/><circle cx="223.68" cy="84.17" r="38.31" class="cls-2"/><circle cx="213.04" cy="69.6" r="5.95" class="cls-2"/><circle cx="243.35" cy="96.76" r="5.95" class="cls-2"/><circle cx="220.41" cy="103.15" r="5.95" class="cls-2"/><circle cx="199.95" cy="90.06" r="4.62" class="cls-2"/><circle cx="237.46" cy="73.03" r="5.28" class="cls-2"/><circle cx="238.43" cy="183.86" r="38.31" class="cls-2"/><circle cx="236.7" cy="165.9" r="5.95" class="cls-2"/><circle cx="248.94" cy="204.72" r="5.95" class="cls-2"/><circle cx="225.94" cy="198.52" r="5.95" class="cls-2"/><circle cx="215.01" cy="176.83" r="4.62" class="cls-2"/><circle cx="255.97" cy="181.3" r="5.28" class="cls-2"/><circle cx="103.31" cy="226.46" r="38.31" class="cls-2"/><circle cx="86.72" cy="219.38" r="5.95" class="cls-2"/><circle cx="126.66" cy="227.23" r="5.95" class="cls-2"/><circle cx="110.2" cy="244.45" r="5.95" class="cls-2"/><circle cx="85.93" cy="243.65" r="4.62" class="cls-2"/><circle cx="109.47" cy="209.84" r="5.28" class="cls-2"/><circle cx="148.31" cy="138.46" r="38.31" class="cls-2"/><circle cx="131.72" cy="131.38" r="5.95" class="cls-2"/><circle cx="171.66" cy="139.23" r="5.95" class="cls-2"/><circle cx="155.2" cy="156.45" r="5.95" class="cls-2"/><circle cx="130.93" cy="155.65" r="4.62" class="cls-2"/><circle cx="154.47" cy="121.84" r="5.28" class="cls-2"/><circle cx="41.31" cy="134.46" r="38.31" class="cls-2"/><circle cx="24.72" cy="127.38" r="5.95" class="cls-2"/><circle cx="64.66" cy="135.23" r="5.95" class="cls-2"/><circle cx="48.2" cy="152.45" r="5.95" class="cls-2"/><circle cx="23.93" cy="151.65" r="4.62" class="cls-2"/><circle cx="47.47" cy="117.84" r="5.28" class="cls-2"/></g><g id="Salami-3" data-name="Salami"><circle cx="111.24" cy="38.31" r="38.31" class="cls-3"/><circle cx="103.98" cy="21.8" r="5.95" class="cls-4"/><circle cx="127.76" cy="54.83" r="5.95" class="cls-4"/><circle cx="103.98" cy="56.15" r="5.95" class="cls-4"/><circle cx="86.8" cy="38.98" r="4.62" class="cls-4"/><circle cx="127.1" cy="30.39" r="5.28" class="cls-4"/><circle cx="220.68" cy="81.17" r="38.31" class="cls-3"/><circle cx="210.04" cy="66.6" r="5.95" class="cls-4"/><circle cx="240.35" cy="93.76" r="5.95" class="cls-4"/><circle cx="217.41" cy="100.15" r="5.95" class="cls-4"/><circle cx="196.95" cy="87.06" r="4.62" class="cls-4"/><circle cx="234.46" cy="70.03" r="5.28" class="cls-4"/><circle cx="235.43" cy="180.86" r="38.31" class="cls-3"/><circle cx="233.7" cy="162.9" r="5.95" class="cls-4"/><circle cx="245.94" cy="201.72" r="5.95" class="cls-4"/><circle cx="222.94" cy="195.52" r="5.95" class="cls-4"/><circle cx="212.01" cy="173.83" r="4.62" class="cls-4"/><circle cx="252.97" cy="178.3" r="5.28" class="cls-4"/><circle cx="100.31" cy="223.46" r="38.31" class="cls-3"/><circle cx="83.72" cy="216.38" r="5.95" class="cls-4"/><circle cx="123.66" cy="224.23" r="5.95" class="cls-4"/><circle cx="107.2" cy="241.45" r="5.95" class="cls-4"/><circle cx="82.93" cy="240.65" r="4.62" class="cls-4"/><circle cx="106.47" cy="206.84" r="5.28" class="cls-4"/><circle cx="145.31" cy="135.46" r="38.31" class="cls-3"/><circle cx="128.72" cy="128.38" r="5.95" class="cls-4"/><circle cx="168.66" cy="136.23" r="5.95" class="cls-4"/><circle cx="152.2" cy="153.45" r="5.95" class="cls-4"/><circle cx="127.93" cy="152.65" r="4.62" class="cls-4"/><circle cx="151.47" cy="118.84" r="5.28" class="cls-4"/><circle cx="38.31" cy="131.46" r="38.31" class="cls-3"/><circle cx="21.72" cy="124.38" r="5.95" class="cls-4"/><circle cx="61.66" cy="132.23" r="5.95" class="cls-4"/><circle cx="45.2" cy="149.45" r="5.95" class="cls-4"/><circle cx="20.93" cy="148.65" r="4.62" class="cls-4"/><circle cx="44.47" cy="114.84" r="5.28" class="cls-4"/></g></g></g></g></svg>